<mxfile host="app.diagrams.net" modified="2023-12-19T15:13:25.637Z" agent="Mozilla/5.0 (Macintosh; Intel Mac OS X 10_15_7) AppleWebKit/537.36 (KHTML, like Gecko) Chrome/119.0.0.0 Safari/537.36" version="22.1.11" etag="smMGWQHm4l3Nbz6h8wcF" type="github">
  <diagram name="Страница — 1" id="pydivIisyZWN8EVVB7JU">
    <mxGraphModel>
      <root>
        <mxCell id="0" />
        <mxCell id="1" parent="0" />
      </root>
    </mxGraphModel>
  </diagram>
</mxfile>
